:version 1.10
:name ASF
:units
  mass 1
  length 1
  angle deg
:documentation
  ASF file generated by Kaydara
:root
  axis xyz
  order  tx ty tz rx ry rz
  position 0 0 0
  orientation 0 0 0
:bonedata
  begin
    id 1
    name RightUpLegDummy
    direction -0.718183 -0.695806 0.00816078
    length 4.904
    axis 0 0 0 xyz
  end
  begin
    id 2
    name RightUpLeg
    direction 3.53989e-006 -0.995788 0.0916897
    length 17.4976
    axis -3.49089 -0.000906621 0.000287158 xyz
    dof rx ry rz
  end
  begin
    id 3
    name RightLeg
    direction 0.00371093 -0.995096 -0.0988418
    length 16.5821
    axis 3.68512 0.0193738 -0.131023 xyz
    dof rx ry rz
  end
  begin
    id 4
    name RightFoot
    direction 0.000791514 -0.46099 0.887405
    length 3.77069
    axis 4.84075e-005 -0.120479 -0.188788 xyz
    dof rx ry rz
  end
  begin
    id 5
    name RightToes
    direction 0.00124746 -0.014064 0.9999
    length 3.85082
    axis 0.00048216 0.542163 -0.142577 xyz
    dof rx ry rz
  end
  begin
    id 6
    name SpineDummy
    direction 8.3039e-015 1 4.57515e-016
    length 4.6813
    axis 0 0 0 xyz
  end
  begin
    id 7
    name Spine
    direction -4.63632e-008 0.999988 0.00495137
    length 10.1015
    axis -0.00138897 0.000121419 3.25764e-006 xyz
    dof rx ry rz
  end
  begin
    id 8
    name Spine1
    direction 0 0 0
    length 0
    axis -0.00138896 0.000121452 2.39764e-006 xyz
    dof rx ry rz
  end
  begin
    id 9
    name HEadDummy
    direction -3.91456e-008 0.999999 0.00127422
    length 3.43865
    axis -0.00138896 0.000121452 2.39764e-006 xyz
  end
  begin
    id 10
    name HEad
    direction -0.0222688 0.980941 0.193023
    length 5.12695
    axis -0.00138895 0.000121452 2.39764e-006 xyz
    dof rx ry rz
  end
  begin
    id 11
    name LeftShoulder1Dummy
    direction 0.998891 -0.0402508 -0.0244456
    length 3.5433
    axis -0.00138896 0.000121452 2.39764e-006 xyz
  end
  begin
    id 12
    name LeftShoulder1
    direction 0.99951 -0.000327743 0.0313091
    length 4.05031
    axis -0.00138896 0.000121452 2.39764e-006 xyz
    dof rx ry rz
  end
  begin
    id 13
    name LeftArm
    direction 0.998561 -0.00100054 -0.0536182
    length 10.3537
    axis -23.1894 0.134784 0.96751 xyz
    dof rx ry rz
  end
  begin
    id 14
    name LeftForeArm
    direction 0.998903 0.00866434 0.046012
    length 8.70632
    axis -9.91835 -0.06569 -0.177792 xyz
    dof rx ry rz
  end
  begin
    id 15
    name LeftHand
    direction 0.992938 -0.0411636 0.11126
    length 5.32135
    axis -0.00960227 -0.00340091 0.185174 xyz
    dof rx ry rz
  end
  begin
    id 16
    name RightShoulderDummy
    direction -0.998891 -0.0402509 -0.0244414
    length 3.5433
    axis -0.00138896 0.000121452 2.39764e-006 xyz
  end
  begin
    id 17
    name RightShoulder
    direction -0.99951 -0.000327827 0.0313133
    length 4.05031
    axis 0.215806 0.000203644 -0.00680151 xyz
    dof rx ry rz
  end
  begin
    id 18
    name RightArm
    direction -0.998573 -0.000999583 -0.053403
    length 10.3947
    axis -23.2009 -0.134239 -0.9641 xyz
    dof rx ry rz
  end
  begin
    id 19
    name RightForeArm
    direction -0.998898 0.00868026 0.0461306
    length 8.68355
    axis -9.92322 0.0658061 0.178869 xyz
    dof rx ry rz
  end
  begin
    id 20
    name RightHand
    direction -0.992843 -0.0414603 0.112003
    length 5.28593
    axis -0.00960634 0.00330671 -0.185226 xyz
    dof rx ry rz
  end
  begin
    id 21
    name LeftUpLegDummy
    direction 0.718183 -0.695806 0.00816078
    length 4.904
    axis 0 0 0 xyz
  end
  begin
    id 22
    name LeftUpLeg
    direction -6.8115e-006 -0.995793 0.0916336
    length 17.4976
    axis -3.48766 0.00143441 -0.000523914 xyz
    dof rx ry rz
  end
  begin
    id 23
    name LeftLeg
    direction -0.00601357 -0.995091 -0.0987824
    length 16.5821
    axis 3.68177 -0.00654038 -0.00028478 xyz
    dof rx ry rz
  end
  begin
    id 24
    name LeftFoot
    direction -0.00417578 -0.460984 0.887399
    length 3.77069
    axis 1.87232e-006 4.66002e-005 -8.1837e-006 xyz
    dof rx ry rz
  end
  begin
    id 25
    name LeftToes
    direction 0.00818058 -0.00485161 0.999955
    length 3.85048
    axis 1.06246e-005 4.65855e-005 -8.18502e-006 xyz
    dof rx ry rz
  end
:hierarchy
  begin
    root RightUpLegDummy SpineDummy LeftUpLegDummy
    RightUpLegDummy RightUpLeg
    RightUpLeg RightLeg
    RightLeg RightFoot
    RightFoot RightToes
    SpineDummy Spine
    Spine Spine1
    Spine1 HEadDummy LeftShoulder1Dummy RightShoulderDummy
    HEadDummy HEad
    LeftShoulder1Dummy LeftShoulder1
    LeftShoulder1 LeftArm
    LeftArm LeftForeArm
    LeftForeArm LeftHand
    RightShoulderDummy RightShoulder
    RightShoulder RightArm
    RightArm RightForeArm
    RightForeArm RightHand
    LeftUpLegDummy LeftUpLeg
    LeftUpLeg LeftLeg
    LeftLeg LeftFoot
    LeftFoot LeftToes
  end

:SAMPLES-PER-SECOND 30
:FRAME-RANGE 1-4244
:FULLY-SPECIFIED
:DEGREES
133
root  -24.3 37.8359 -110.522 5.1298 -57.4037 -2.8757
RightUpLeg  -6.2967 4.74986 -8.39489
RightLeg  25.6271 8.09712 3.99181
RightFoot  -22.7842 0.851212 10.02
RightToes  -1.33073e-015 0 -3.6325e-017
Spine  2.47727 1.35319 9.7747
Spine1  2.92545 2.2086 -3.84659
HEad  0.81966 59.6694 -17.3024
LeftShoulder1  0.285544 2.24591 -20.7884
LeftArm  7.82851 -5.49442 -59.7721
LeftForeArm  31.361 -9.03274 -11.5981
LeftHand  -0.0443265 4.58503 3.23603
RightShoulder  1.60574 1.95645 24.3978
RightArm  -39.8999 -13.3524 34.1186
RightForeArm  71.0794 -3.56067 -6.36459
RightHand  0.421842 -8.65533 -15.7347
LeftUpLeg  -28.7189 -11.5534 2.52577
LeftLeg  40.532 -15.7411 -13.6234
LeftFoot  -16.2121 -0.360702 -10.7342
LeftToes  2.72522e-012 8.43823e-011 6.24977e-012
134
root  -24.5032 38.0769 -110.58 5.04497 -54.6868 -1.65639
RightUpLeg  -5.27188 1.95022 -8.70566
RightLeg  23.2212 8.05806 3.5578
RightFoot  -21.8585 0.750331 9.74639
RightToes  -1.33073e-015 0 -3.6325e-017
Spine  1.92064 1.11558 9.47543
Spine1  2.6377 2.06703 -4.65908
HEad  1.12174 58.8233 -16.8734
LeftShoulder1  0.185368 2.61628 -20.7537
LeftArm  6.89039 -3.42559 -58.2967
LeftForeArm  31.5015 -9.04521 -11.5022
LeftHand  -0.0473097 4.41465 3.11389
RightShoulder  1.61281 1.95708 24.536
RightArm  -37.9807 -13.1609 36.7053
RightForeArm  71.1093 -3.85985 -4.6623
RightHand  0.338101 -8.0726 -15.5067
LeftUpLeg  -29.3834 -8.78519 3.20431
LeftLeg  38.2525 -11.7056 -9.38805
LeftFoot  -15.6972 -0.268713 -9.51689
LeftToes  2.72522e-012 8.43823e-011 6.24977e-012
135
root  -24.6804 38.2358 -110.565 4.6427 -52.0936 -0.466041
RightUpLeg  -4.05907 -0.354472 -9.14453
RightLeg  21.3159 7.74825 3.10886
RightFoot  -21.3467 0.711239 9.76214
RightToes  -1.33073e-015 0 -3.6325e-017
Spine  1.09606 0.968915 8.41524
Spine1  3.49073 1.84842 -4.45196
HEad  -0.124529 57.8342 -17.9094
LeftShoulder1  0.232507 2.44552 -20.8913
LeftArm  4.47528 -1.65808 -57.0403
LeftForeArm  32.0931 -8.25325 -11.5643
LeftHand  -0.0516315 4.34902 3.47312
RightShoulder  1.5641 1.80057 24.5142
RightArm  -34.7595 -11.974 39.2339
RightForeArm  69.856 -4.34837 -2.14344
RightHand  0.310186 -7.81138 -15.7947
LeftUpLeg  -29.7544 -6.83938 4.19146
LeftLeg  35.8235 -5.53063 -3.91738
LeftFoot  -13.4702 -0.0504595 -7.04817
LeftToes  2.72522e-012 8.43823e-011 6.24977e-012
136
root  -24.8289 38.3138 -110.489 4.55828 -49.6843 0.340216
RightUpLeg  -3.15252 -2.26583 -9.43815
RightLeg  20.0568 7.2567 2.63887
RightFoot  -21.1539 0.705143 9.86836
RightToes  -1.33073e-015 0 -3.6325e-017
Spine  1.8151 0.588697 7.40981
Spine1  2.09144 1.40705 -4.36254
HEad  -0.490061 57.2777 -17.7843
LeftShoulder1  0.188471 2.60424 -20.7319
LeftArm  1.16024 0.753486 -55.7688
LeftForeArm  33.4818 -7.21422 -11.5259
LeftHand  -0.034098 5.06284 3.62782
RightShoulder  1.59864 1.82963 25.0422
RightArm  -31.3263 -10.7022 41.0852
RightForeArm  67.9208 -4.84383 0.306346
RightHand  0.251871 -7.31316 -16.2671
LeftUpLeg  -30.2474 -5.46114 5.71877
LeftLeg  33.5944 0.48132 0.699688
LeftFoot  -12.1322 0.0434524 -4.23612
LeftToes  2.72522e-012 8.43823e-011 6.24977e-012
137
root  -24.9493 38.3377 -110.329 4.52032 -47.564 0.863952
RightUpLeg  -2.28229 -3.76489 -9.69601
RightLeg  19.2703 6.66752 2.2145
RightFoot  -21.1625 0.72561 10.0972
RightToes  -1.33073e-015 0 -3.6325e-017
Spine  1.36315 0.728525 5.8698
Spine1  2.87217 1.24125 -2.92522
HEad  -1.45256 56.0001 -18.6016
LeftShoulder1  0.261262 2.3609 -21.5505
LeftArm  -1.74079 0.520872 -54.222
LeftForeArm  34.6278 -3.36526 -12.0229
LeftHand  -0.0362363 5.00988 3.95688
RightShoulder  1.53614 1.66645 24.7873
RightArm  -28.9411 -8.13563 43.4518
RightForeArm  65.8946 -5.18884 1.89307
RightHand  0.193067 -6.84286 -16.7161
LeftUpLeg  -30.4899 -3.88481 7.43933
LeftLeg  31.1045 4.11088 3.02057
LeftFoot  -10.9643 0.07638 -3.23427
LeftToes  2.72522e-012 8.43823e-011 6.24977e-012
138
root  -25.0517 38.3523 -110.072 4.12522 -45.7195 1.6723
RightUpLeg  -1.20834 -5.21582 -10.4412
RightLeg  18.528 6.31534 1.96463
RightFoot  -21.2115 0.765219 10.5067
RightToes  -1.33073e-015 0 -3.6325e-017
Spine  1.29008 0.647702 4.76092
Spine1  3.35846 1.13569 -2.81139
HEad  -1.75337 54.9206 -18.2085
LeftShoulder1  0.311361 2.17567 -21.4366
LeftArm  -3.382 1.06709 -53.2307
LeftForeArm  34.8695 -0.47513 -11.948
LeftHand  -0.0308739 5.18575 3.64273
RightShoulder  1.58264 1.80676 24.8582
RightArm  -27.4998 -4.94104 46.1837
RightForeArm  65.1952 -5.35436 2.72434
RightHand  0.17329 -6.63411 -17.5354
LeftUpLeg  -30.3873 -2.14447 8.63137
LeftLeg  28.1321 6.41144 4.04322
LeftFoot  -8.03137 0.109072 -2.10625
LeftToes  2.72522e-012 8.43823e-011 6.24977e-012
